<mxfile host="app.diagrams.net" agent="Mozilla/5.0 (Windows NT 10.0; Win64; x64) AppleWebKit/537.36 (KHTML, like Gecko) Chrome/128.0.0.0 Safari/537.36" version="24.7.8">
  <diagram name="Page-1" id="2tC8VmPLjtLr1J6G5vQs">
    <mxGraphModel dx="850" dy="756" grid="1" gridSize="10" guides="1" tooltips="1" connect="1" arrows="1" fold="1" page="1" pageScale="1" pageWidth="850" pageHeight="1100" math="0" shadow="0">
      <root>
        <mxCell id="0" />
        <mxCell id="1" parent="0" />
        <mxCell id="pvtO3db3lYFqt5PCmuNX-4" value="co_await awaitable;" style="rounded=1;whiteSpace=wrap;html=1;arcSize=50;fontSize=14;" vertex="1" parent="1">
          <mxGeometry x="80" y="170" width="190" height="40" as="geometry" />
        </mxCell>
        <mxCell id="pvtO3db3lYFqt5PCmuNX-39" value="awaitable.await_ready();" style="rhombus;whiteSpace=wrap;html=1;fontSize=14;" vertex="1" parent="1">
          <mxGeometry x="80" y="230" width="190" height="60" as="geometry" />
        </mxCell>
        <mxCell id="pvtO3db3lYFqt5PCmuNX-40" value="coroutine suspended" style="rounded=1;whiteSpace=wrap;html=1;fontSize=14;" vertex="1" parent="1">
          <mxGeometry x="80" y="320" width="190" height="40" as="geometry" />
        </mxCell>
        <mxCell id="pvtO3db3lYFqt5PCmuNX-41" value="awaitable.await_suspend(handle);" style="rounded=1;whiteSpace=wrap;html=1;fontSize=14;" vertex="1" parent="1">
          <mxGeometry x="320" y="320" width="240" height="40" as="geometry" />
        </mxCell>
        <mxCell id="pvtO3db3lYFqt5PCmuNX-42" value="return type" style="rhombus;whiteSpace=wrap;html=1;fontSize=14;" vertex="1" parent="1">
          <mxGeometry x="142.5" y="400" width="190" height="50" as="geometry" />
        </mxCell>
        <mxCell id="pvtO3db3lYFqt5PCmuNX-43" value="handle.resume()" style="rounded=1;whiteSpace=wrap;html=1;fontSize=14;" vertex="1" parent="1">
          <mxGeometry x="140" y="500" width="170" height="40" as="geometry" />
        </mxCell>
        <mxCell id="pvtO3db3lYFqt5PCmuNX-44" value="coroutine behind handle suspended or finished" style="rounded=1;whiteSpace=wrap;html=1;fontSize=14;" vertex="1" parent="1">
          <mxGeometry x="120" y="570" width="200" height="40" as="geometry" />
        </mxCell>
        <mxCell id="pvtO3db3lYFqt5PCmuNX-45" value="coroutine resumed" style="rounded=1;whiteSpace=wrap;html=1;fontSize=14;" vertex="1" parent="1">
          <mxGeometry x="133.75" y="640" width="182.5" height="40" as="geometry" />
        </mxCell>
        <mxCell id="pvtO3db3lYFqt5PCmuNX-46" value="awaitable.await_resume()" style="rounded=1;whiteSpace=wrap;html=1;fontSize=14;" vertex="1" parent="1">
          <mxGeometry x="385" y="640" width="215" height="40" as="geometry" />
        </mxCell>
        <mxCell id="pvtO3db3lYFqt5PCmuNX-47" value="coroutine caller" style="rounded=1;whiteSpace=wrap;html=1;arcSize=50;fontSize=14;" vertex="1" parent="1">
          <mxGeometry x="397.5" y="450" width="190" height="40" as="geometry" />
        </mxCell>
        <mxCell id="pvtO3db3lYFqt5PCmuNX-48" value="caller calls resume()" style="rounded=1;whiteSpace=wrap;html=1;arcSize=50;fontSize=14;" vertex="1" parent="1">
          <mxGeometry x="399" y="518" width="182.5" height="40" as="geometry" />
        </mxCell>
        <mxCell id="pvtO3db3lYFqt5PCmuNX-49" value="coroutine body" style="rounded=1;whiteSpace=wrap;html=1;arcSize=50;fontSize=14;" vertex="1" parent="1">
          <mxGeometry x="396" y="707" width="190" height="40" as="geometry" />
        </mxCell>
        <mxCell id="pvtO3db3lYFqt5PCmuNX-51" value="" style="endArrow=classic;html=1;rounded=0;exitX=0.5;exitY=1;exitDx=0;exitDy=0;" edge="1" parent="1" source="pvtO3db3lYFqt5PCmuNX-4" target="pvtO3db3lYFqt5PCmuNX-39">
          <mxGeometry width="50" height="50" relative="1" as="geometry">
            <mxPoint x="180" y="210" as="sourcePoint" />
            <mxPoint x="230" y="160" as="targetPoint" />
          </mxGeometry>
        </mxCell>
        <mxCell id="pvtO3db3lYFqt5PCmuNX-52" value="" style="endArrow=classic;html=1;rounded=0;entryX=0.5;entryY=0;entryDx=0;entryDy=0;" edge="1" parent="1" target="pvtO3db3lYFqt5PCmuNX-40">
          <mxGeometry width="50" height="50" relative="1" as="geometry">
            <mxPoint x="175" y="290" as="sourcePoint" />
            <mxPoint x="225" y="240" as="targetPoint" />
          </mxGeometry>
        </mxCell>
        <mxCell id="pvtO3db3lYFqt5PCmuNX-53" value="FALSE" style="edgeLabel;html=1;align=center;verticalAlign=middle;resizable=0;points=[];" vertex="1" connectable="0" parent="pvtO3db3lYFqt5PCmuNX-52">
          <mxGeometry x="-0.1467" relative="1" as="geometry">
            <mxPoint as="offset" />
          </mxGeometry>
        </mxCell>
        <mxCell id="pvtO3db3lYFqt5PCmuNX-55" value="" style="endArrow=classic;html=1;rounded=0;entryX=0.013;entryY=0.47;entryDx=0;entryDy=0;entryPerimeter=0;" edge="1" parent="1" target="pvtO3db3lYFqt5PCmuNX-41">
          <mxGeometry width="50" height="50" relative="1" as="geometry">
            <mxPoint x="270" y="340" as="sourcePoint" />
            <mxPoint x="320" y="290" as="targetPoint" />
          </mxGeometry>
        </mxCell>
        <mxCell id="pvtO3db3lYFqt5PCmuNX-56" value="" style="edgeStyle=elbowEdgeStyle;elbow=horizontal;endArrow=classic;html=1;curved=0;rounded=0;endSize=8;startSize=8;entryX=0.482;entryY=-0.057;entryDx=0;entryDy=0;entryPerimeter=0;exitX=0.989;exitY=0.514;exitDx=0;exitDy=0;exitPerimeter=0;" edge="1" parent="1" source="pvtO3db3lYFqt5PCmuNX-42" target="pvtO3db3lYFqt5PCmuNX-47">
          <mxGeometry width="50" height="50" relative="1" as="geometry">
            <mxPoint x="332.49999999999994" y="400.00000000000006" as="sourcePoint" />
            <mxPoint x="495.92" y="426.3" as="targetPoint" />
            <Array as="points">
              <mxPoint x="489" y="427" />
            </Array>
          </mxGeometry>
        </mxCell>
        <mxCell id="pvtO3db3lYFqt5PCmuNX-73" value="void" style="edgeLabel;html=1;align=center;verticalAlign=middle;resizable=0;points=[];" vertex="1" connectable="0" parent="pvtO3db3lYFqt5PCmuNX-56">
          <mxGeometry x="-0.3964" y="-1" relative="1" as="geometry">
            <mxPoint as="offset" />
          </mxGeometry>
        </mxCell>
        <mxCell id="pvtO3db3lYFqt5PCmuNX-60" value="" style="edgeStyle=elbowEdgeStyle;elbow=vertical;endArrow=classic;html=1;curved=0;rounded=0;endSize=8;startSize=8;exitX=0;exitY=0.5;exitDx=0;exitDy=0;entryX=0;entryY=0.5;entryDx=0;entryDy=0;" edge="1" parent="1" source="pvtO3db3lYFqt5PCmuNX-42" target="pvtO3db3lYFqt5PCmuNX-45">
          <mxGeometry width="50" height="50" relative="1" as="geometry">
            <mxPoint x="60" y="460" as="sourcePoint" />
            <mxPoint x="70" y="680" as="targetPoint" />
            <Array as="points">
              <mxPoint x="110" y="550" />
            </Array>
          </mxGeometry>
        </mxCell>
        <mxCell id="pvtO3db3lYFqt5PCmuNX-68" value="bool - false" style="edgeLabel;html=1;align=center;verticalAlign=middle;resizable=0;points=[];" vertex="1" connectable="0" parent="pvtO3db3lYFqt5PCmuNX-60">
          <mxGeometry x="-0.4914" y="2" relative="1" as="geometry">
            <mxPoint as="offset" />
          </mxGeometry>
        </mxCell>
        <mxCell id="pvtO3db3lYFqt5PCmuNX-61" value="" style="edgeStyle=elbowEdgeStyle;elbow=vertical;endArrow=classic;html=1;curved=0;rounded=0;endSize=8;startSize=8;exitX=0.282;exitY=0.783;exitDx=0;exitDy=0;entryX=0.5;entryY=0;entryDx=0;entryDy=0;exitPerimeter=0;" edge="1" parent="1" source="pvtO3db3lYFqt5PCmuNX-42" target="pvtO3db3lYFqt5PCmuNX-43">
          <mxGeometry width="50" height="50" relative="1" as="geometry">
            <mxPoint x="153" y="440" as="sourcePoint" />
            <mxPoint x="138" y="690" as="targetPoint" />
            <Array as="points">
              <mxPoint x="190" y="470" />
            </Array>
          </mxGeometry>
        </mxCell>
        <mxCell id="pvtO3db3lYFqt5PCmuNX-69" value="coroutine handle" style="edgeLabel;html=1;align=center;verticalAlign=middle;resizable=0;points=[];" vertex="1" connectable="0" parent="pvtO3db3lYFqt5PCmuNX-61">
          <mxGeometry x="-0.7073" y="-1" relative="1" as="geometry">
            <mxPoint x="-5" y="8" as="offset" />
          </mxGeometry>
        </mxCell>
        <mxCell id="pvtO3db3lYFqt5PCmuNX-62" value="" style="edgeStyle=elbowEdgeStyle;elbow=vertical;endArrow=classic;html=1;curved=0;rounded=0;endSize=8;startSize=8;exitX=0.5;exitY=1;exitDx=0;exitDy=0;entryX=0;entryY=0.5;entryDx=0;entryDy=0;" edge="1" parent="1" source="pvtO3db3lYFqt5PCmuNX-42" target="pvtO3db3lYFqt5PCmuNX-47">
          <mxGeometry width="50" height="50" relative="1" as="geometry">
            <mxPoint x="330" y="480" as="sourcePoint" />
            <mxPoint x="380" y="430" as="targetPoint" />
            <Array as="points">
              <mxPoint x="240" y="470" />
            </Array>
          </mxGeometry>
        </mxCell>
        <mxCell id="pvtO3db3lYFqt5PCmuNX-70" value="bool - true" style="edgeLabel;html=1;align=center;verticalAlign=middle;resizable=0;points=[];" vertex="1" connectable="0" parent="pvtO3db3lYFqt5PCmuNX-62">
          <mxGeometry x="-0.204" y="1" relative="1" as="geometry">
            <mxPoint as="offset" />
          </mxGeometry>
        </mxCell>
        <mxCell id="pvtO3db3lYFqt5PCmuNX-63" value="" style="endArrow=classic;html=1;rounded=0;" edge="1" parent="1" target="pvtO3db3lYFqt5PCmuNX-44">
          <mxGeometry width="50" height="50" relative="1" as="geometry">
            <mxPoint x="220" y="540" as="sourcePoint" />
            <mxPoint x="270" y="490" as="targetPoint" />
          </mxGeometry>
        </mxCell>
        <mxCell id="pvtO3db3lYFqt5PCmuNX-64" value="" style="endArrow=classic;html=1;rounded=0;entryX=0.476;entryY=0.064;entryDx=0;entryDy=0;entryPerimeter=0;exitX=0.5;exitY=1;exitDx=0;exitDy=0;" edge="1" parent="1" source="pvtO3db3lYFqt5PCmuNX-44" target="pvtO3db3lYFqt5PCmuNX-45">
          <mxGeometry width="50" height="50" relative="1" as="geometry">
            <mxPoint x="220" y="630" as="sourcePoint" />
            <mxPoint x="270" y="580" as="targetPoint" />
          </mxGeometry>
        </mxCell>
        <mxCell id="pvtO3db3lYFqt5PCmuNX-65" value="" style="endArrow=classic;html=1;rounded=0;entryX=0;entryY=0.5;entryDx=0;entryDy=0;" edge="1" parent="1" target="pvtO3db3lYFqt5PCmuNX-46">
          <mxGeometry width="50" height="50" relative="1" as="geometry">
            <mxPoint x="320" y="660" as="sourcePoint" />
            <mxPoint x="380" y="660" as="targetPoint" />
          </mxGeometry>
        </mxCell>
        <mxCell id="pvtO3db3lYFqt5PCmuNX-66" value="" style="endArrow=classic;html=1;rounded=0;entryX=0;entryY=0.5;entryDx=0;entryDy=0;exitX=1;exitY=0.5;exitDx=0;exitDy=0;" edge="1" parent="1" source="pvtO3db3lYFqt5PCmuNX-45" target="pvtO3db3lYFqt5PCmuNX-46">
          <mxGeometry width="50" height="50" relative="1" as="geometry">
            <mxPoint x="320" y="660" as="sourcePoint" />
            <mxPoint x="380" y="660" as="targetPoint" />
          </mxGeometry>
        </mxCell>
        <mxCell id="pvtO3db3lYFqt5PCmuNX-67" value="" style="endArrow=classic;html=1;rounded=0;" edge="1" parent="1" target="pvtO3db3lYFqt5PCmuNX-49">
          <mxGeometry width="50" height="50" relative="1" as="geometry">
            <mxPoint x="490" y="680" as="sourcePoint" />
            <mxPoint x="540" y="630" as="targetPoint" />
          </mxGeometry>
        </mxCell>
        <mxCell id="pvtO3db3lYFqt5PCmuNX-72" value="" style="endArrow=classic;html=1;rounded=0;" edge="1" parent="1" target="pvtO3db3lYFqt5PCmuNX-48">
          <mxGeometry width="50" height="50" relative="1" as="geometry">
            <mxPoint x="490" y="490" as="sourcePoint" />
            <mxPoint x="540" y="440" as="targetPoint" />
          </mxGeometry>
        </mxCell>
        <mxCell id="pvtO3db3lYFqt5PCmuNX-74" value="" style="edgeStyle=elbowEdgeStyle;elbow=vertical;endArrow=classic;html=1;curved=0;rounded=0;endSize=8;startSize=8;exitX=0.5;exitY=1;exitDx=0;exitDy=0;" edge="1" parent="1" source="pvtO3db3lYFqt5PCmuNX-48">
          <mxGeometry width="50" height="50" relative="1" as="geometry">
            <mxPoint x="490" y="620" as="sourcePoint" />
            <mxPoint x="220" y="620" as="targetPoint" />
            <Array as="points">
              <mxPoint x="360" y="620" />
            </Array>
          </mxGeometry>
        </mxCell>
        <mxCell id="pvtO3db3lYFqt5PCmuNX-76" value="" style="edgeStyle=elbowEdgeStyle;elbow=vertical;endArrow=classic;html=1;curved=0;rounded=0;endSize=8;startSize=8;exitX=0.5;exitY=1;exitDx=0;exitDy=0;entryX=0.5;entryY=0;entryDx=0;entryDy=0;" edge="1" parent="1" source="pvtO3db3lYFqt5PCmuNX-41" target="pvtO3db3lYFqt5PCmuNX-42">
          <mxGeometry width="50" height="50" relative="1" as="geometry">
            <mxPoint x="440" y="420" as="sourcePoint" />
            <mxPoint x="490" y="370" as="targetPoint" />
          </mxGeometry>
        </mxCell>
        <mxCell id="pvtO3db3lYFqt5PCmuNX-79" value="" style="edgeStyle=elbowEdgeStyle;elbow=vertical;endArrow=classic;html=1;curved=0;rounded=0;endSize=8;startSize=8;exitX=1;exitY=0.5;exitDx=0;exitDy=0;entryX=1;entryY=0.5;entryDx=0;entryDy=0;" edge="1" parent="1" source="pvtO3db3lYFqt5PCmuNX-39" target="pvtO3db3lYFqt5PCmuNX-49">
          <mxGeometry width="50" height="50" relative="1" as="geometry">
            <mxPoint x="153" y="435" as="sourcePoint" />
            <mxPoint x="144" y="670" as="targetPoint" />
            <Array as="points">
              <mxPoint x="620" y="530" />
            </Array>
          </mxGeometry>
        </mxCell>
        <mxCell id="pvtO3db3lYFqt5PCmuNX-80" value="TRUE" style="edgeLabel;html=1;align=center;verticalAlign=middle;resizable=0;points=[];" vertex="1" connectable="0" parent="pvtO3db3lYFqt5PCmuNX-79">
          <mxGeometry x="-0.4914" y="2" relative="1" as="geometry">
            <mxPoint x="-117" y="2" as="offset" />
          </mxGeometry>
        </mxCell>
      </root>
    </mxGraphModel>
  </diagram>
</mxfile>
